<svg width="200" height="66" viewBox="0 0 200 66" fill="none" xmlns="http://www.w3.org/2000/svg"><path d="M25.023 28.998c-7.93 0-14.386-6.508-14.386-14.504C10.637 6.498 17.093 0 25.023 0c7.93 0 14.385 6.509 14.385 14.504 0 7.996-6.455 14.505-14.385 14.505v-.01zm0-21.084c-3.607 0-6.526 2.954-6.526 6.58s2.93 6.58 6.526 6.58c3.596 0 6.526-2.954 6.526-6.58s-2.93-6.58-6.526-6.58zM12.304 25.118H0v40.284h12.304V25.118zM36.66 46.67c-1.141-.59-2.616-.835-4.384-.835h-5.061v19.567h4.03v-6.56h.677c1.708 0 3.061-.265 4.152-.682 2.88-1.13 3.86-3.565 3.86-5.847 0-2.699-1.152-4.624-3.274-5.643zm-2.414 8.495c-.525.265-1.243.387-2.091.387h-.91v-6.407h.85c.969 0 1.686.123 2.242.449.97.59 1.414 1.599 1.414 2.73 0 1.364-.465 2.373-1.495 2.851l-.01-.01zm12.496-9.33l-7.566 19.567h4.151l1.799-4.777h6.596l1.89 4.777h4.323l-7.92-19.567h-3.273zm-.465 11.52l1.172-3.27c.525-1.425.818-2.26.97-2.943h.06c.172.652.415 1.487.88 2.903l1.151 3.3h-4.243l.01.01zm23.195-.774v-.06c2.182-.683 3.768-2.466 3.768-5.022 0-2.078-.849-3.952-3.091-4.93-1.03-.479-2.324-.744-4.061-.744h-5.799v19.567h4.03v-7.395h1.476c.474.122 1.151.866 2.121 2.7l2.566 4.685h4.617l-3.142-5.613c-1.03-1.813-1.89-2.882-2.475-3.208l-.01.02zM67.765 54.3c-.495.265-1.061.417-1.94.417H64.32v-5.581h1.525c.89 0 1.445.142 1.89.417.858.448 1.323 1.334 1.323 2.373 0 1.1-.536 1.905-1.293 2.374zm47.944-5.022h5.647v16.124h4.041V49.278h5.091l1.061-3.443h-15.84v3.443zm-3.061 0l1.061-3.443h-11.214v19.567h11.183v-3.443h-7.152v-4.747h6.152V53.79h-6.152v-4.512h6.122zm-30.892-3.443h-4.031v19.567h4.03V45.835zm2.626 3.443h5.647v16.124h4.041V49.278h5.092l1.06-3.443h-15.84v3.443zm107.021 6.234l8.072-9.677h-2.586l-7.365 8.974h-.06v-8.974h-2.183v19.567h2.183v-8.933h.06l7.738 8.933H200l-8.597-9.89zm-49.429-.408v-.06c1.596-.683 2.566-2.262 2.566-4.248 0-2.669-1.819-4.96-5.95-4.96h-4.506v19.566h5.071c4.294 0 6.597-2.251 6.597-5.551 0-2.465-1.596-4.278-3.768-4.747h-.01zm-5.708-7.415h2.213c2.768 0 3.879 1.396 3.879 3.351 0 2.17-1.384 3.443-3.97 3.443h-2.122v-6.794zm2.889 15.88h-2.889v-7.242h3.152c2.475 0 4.091 1.395 4.091 3.595 0 2.608-1.737 3.647-4.354 3.647zm41.207-5.297c0 1.538 0 2.404.06 3.443h-.06a135.295 135.295 0 00-2.829-3.952l-8.95-11.938h-2.092v19.567h2.182V52.568c0-1.538-.03-2.373-.09-3.351h.06c.677.978 1.556 2.23 2.738 3.769l9.294 12.406h1.828V45.825h-2.152v12.437l.011.01zm-25.518-12.437l-7.365 19.567h2.294l1.909-5.256h7.799l1.919 5.256h2.364l-7.425-19.567h-1.495zm3.95 12.468h-6.425l2.03-5.643c.617-1.722.94-2.648 1.182-3.382h.061a78.9 78.9 0 001.141 3.382l2.001 5.643h.01z" fill="#004A98"/></svg>